<svg width="48" height="44" viewBox="0 0 48 44" fill="none" xmlns="http://www.w3.org/2000/svg">
<g filter="url(#filter0_d_401_20)">
<path d="M26.5546 17.7125L26.3205 17.9556L26.5549 18.1984L31.3011 23.1131C31.5241 23.344 31.5284 23.7311 31.3003 23.9745C31.2999 23.9749 31.2995 23.9753 31.2992 23.9756L29.5806 25.7605C29.3649 25.9845 29.013 25.989 28.7854 25.7595C28.785 25.7591 28.7846 25.7587 28.7843 25.7584L24.0407 20.8463L23.7886 20.5852L23.5369 20.8467L18.798 25.7685C18.5823 25.9925 18.2304 25.997 18.0028 25.7675C18.0024 25.7672 18.002 25.7668 18.0016 25.7664L16.2805 23.9841C16.0575 23.7532 16.0532 23.3661 16.2813 23.1227C16.2817 23.1223 16.2821 23.1219 16.2825 23.1215L21.0187 18.2025L21.2528 17.9594L21.0184 17.7166L16.2722 12.8019C16.0492 12.571 16.0449 12.1839 16.273 11.9406L17.9927 10.1545C18.2083 9.93054 18.5602 9.92598 18.7878 10.1554C18.7882 10.1558 18.7886 10.1562 18.789 10.1566L23.5326 15.0687L23.7847 15.3297L24.0365 15.0683L28.7753 10.1465C28.991 9.9225 29.3429 9.91796 29.5705 10.1475C29.5709 10.1479 29.5713 10.1482 29.5717 10.1486L31.2928 11.9309L31.2928 11.9309L31.2954 11.9336C31.523 12.1642 31.527 12.5482 31.2934 12.7907L26.5546 17.7125ZM7.70776 0.376663L39.8394 0.352779C41.681 0.35141 43.198 1.90366 43.1995 3.84516L43.2204 32.0409C43.2219 33.9825 41.7072 35.537 39.8655 35.5383L7.73391 35.5622C5.89226 35.5636 4.37526 34.0113 4.37382 32.0698L4.35286 3.87404C4.35141 1.93253 5.8661 0.378032 7.70776 0.376663ZM39.3998 32.3938C39.8599 32.3934 40.2129 32.0081 40.2126 31.5626L40.1923 4.32801C40.192 3.88249 39.8384 3.49766 39.3783 3.498L8.17353 3.5212C7.71345 3.52154 7.36038 3.90689 7.36071 4.35241L7.38096 31.587C7.38129 32.0325 7.73493 32.4173 8.19501 32.417L39.3998 32.3938Z" fill="#26577C" stroke="#26577C" stroke-width="0.7"/>
</g>
<defs>
<filter id="filter0_d_401_20" x="0.00285721" y="0.00280762" width="47.5676" height="43.9094" filterUnits="userSpaceOnUse" color-interpolation-filters="sRGB">
<feFlood flood-opacity="0" result="BackgroundImageFix"/>
<feColorMatrix in="SourceAlpha" type="matrix" values="0 0 0 0 0 0 0 0 0 0 0 0 0 0 0 0 0 0 127 0" result="hardAlpha"/>
<feOffset dy="4"/>
<feGaussianBlur stdDeviation="2"/>
<feComposite in2="hardAlpha" operator="out"/>
<feColorMatrix type="matrix" values="0 0 0 0 0 0 0 0 0 0 0 0 0 0 0 0 0 0 0.25 0"/>
<feBlend mode="normal" in2="BackgroundImageFix" result="effect1_dropShadow_401_20"/>
<feBlend mode="normal" in="SourceGraphic" in2="effect1_dropShadow_401_20" result="shape"/>
</filter>
</defs>
</svg>
