<svg width="40" height="30" viewBox="0 0 25 22" fill="none" xmlns="http://www.w3.org/2000/svg">
<path d="M24.1071 18.75H0.892857C0.656057 18.75 0.428955 18.8323 0.261512 18.9788C0.0940686 19.1253 0 19.324 0 19.5312L0 21.0938C0 21.301 0.0940686 21.4997 0.261512 21.6462C0.428955 21.7927 0.656057 21.875 0.892857 21.875H24.1071C24.3439 21.875 24.571 21.7927 24.7385 21.6462C24.9059 21.4997 25 21.301 25 21.0938V19.5312C25 19.324 24.9059 19.1253 24.7385 18.9788C24.571 18.8323 24.3439 18.75 24.1071 18.75ZM24.1071 12.5H0.892857C0.656057 12.5 0.428955 12.5823 0.261512 12.7288C0.0940686 12.8753 0 13.074 0 13.2812L0 14.8438C0 15.051 0.0940686 15.2497 0.261512 15.3962C0.428955 15.5427 0.656057 15.625 0.892857 15.625H24.1071C24.3439 15.625 24.571 15.5427 24.7385 15.3962C24.9059 15.2497 25 15.051 25 14.8438V13.2812C25 13.074 24.9059 12.8753 24.7385 12.7288C24.571 12.5823 24.3439 12.5 24.1071 12.5ZM24.1071 6.25H0.892857C0.656057 6.25 0.428955 6.33231 0.261512 6.47882C0.0940686 6.62534 0 6.82405 0 7.03125L0 8.59375C0 8.80095 0.0940686 8.99966 0.261512 9.14618C0.428955 9.29269 0.656057 9.375 0.892857 9.375H24.1071C24.3439 9.375 24.571 9.29269 24.7385 9.14618C24.9059 8.99966 25 8.80095 25 8.59375V7.03125C25 6.82405 24.9059 6.62534 24.7385 6.47882C24.571 6.33231 24.3439 6.25 24.1071 6.25ZM24.1071 0H0.892857C0.656057 0 0.428955 0.08231 0.261512 0.228823C0.0940686 0.375336 0 0.57405 0 0.78125L0 2.34375C0 2.55095 0.0940686 2.74966 0.261512 2.89618C0.428955 3.04269 0.656057 3.125 0.892857 3.125H24.1071C24.3439 3.125 24.571 3.04269 24.7385 2.89618C24.9059 2.74966 25 2.55095 25 2.34375V0.78125C25 0.57405 24.9059 0.375336 24.7385 0.228823C24.571 0.08231 24.3439 0 24.1071 0Z" fill="#26577C"/>
</svg>
