<svg width="35" height="35" viewBox="0 0 35 35" fill="none" xmlns="http://www.w3.org/2000/svg">
<path d="M17.5 0C7.8357 0 0 7.83852 0 17.5C0 27.1671 7.8357 35 17.5 35C27.1643 35 35 27.1671 35 17.5C35 7.83852 27.1643 0 17.5 0ZM17.5 7.7621C19.1368 7.7621 20.4637 9.08899 20.4637 10.7258C20.4637 12.3626 19.1368 13.6895 17.5 13.6895C15.8632 13.6895 14.5363 12.3626 14.5363 10.7258C14.5363 9.08899 15.8632 7.7621 17.5 7.7621ZM21.4516 25.6855C21.4516 26.1531 21.0725 26.5323 20.6048 26.5323H14.3952C13.9275 26.5323 13.5484 26.1531 13.5484 25.6855V23.9919C13.5484 23.5243 13.9275 23.1452 14.3952 23.1452H15.2419V18.629H14.3952C13.9275 18.629 13.5484 18.2499 13.5484 17.7823V16.0887C13.5484 15.6211 13.9275 15.2419 14.3952 15.2419H18.9113C19.3789 15.2419 19.7581 15.6211 19.7581 16.0887V23.1452H20.6048C21.0725 23.1452 21.4516 23.5243 21.4516 23.9919V25.6855Z" fill="#26577C"/>
</svg>
