<svg width="120" height="70" viewBox="0 0 133 80" fill="none" xmlns="http://www.w3.org/2000/svg">
<path d="M99.9666 32.2872C99.4162 21.7716 89.9788 13.888 79.4493 13.888H77.8226C68.6525 13.888 59.7237 11.0668 52.1734 5.86022C44.8835 0.832468 35.4998 -1.36544 25.5745 0.877607C22.4478 1.58246 -0.0138824 8.02688 6.4382e-06 33.3323C0.00695085 45.65 6.71525 56.3878 16.6649 62.1534V74.9988C16.6649 76.5335 17.9079 77.7766 19.4426 77.7766H22.2204C23.7551 77.7766 24.9982 76.5335 24.9982 74.9988V65.5787C27.6648 66.2662 30.4495 66.6655 33.3315 66.6655C34.2759 66.6655 35.1856 66.5388 36.1092 66.4606V74.9988C36.1092 76.5335 37.3523 77.7766 38.887 77.7766H41.6647C43.1995 77.7766 44.4425 76.5335 44.4425 74.9988V64.6811C46.9147 63.8027 49.2828 62.7037 51.4459 61.294C59.3869 56.1187 68.3782 52.7767 77.8573 52.7767C82.2809 52.7767 80.6368 52.7229 81.859 52.6413L94.7774 76.3287C95.2739 77.2366 96.2183 77.7766 97.2166 77.7766C97.444 77.7766 97.6749 77.7488 97.9023 77.6898C99.1332 77.3773 99.9943 76.2679 99.9943 74.9988C99.9943 74.9988 100.019 33.2907 99.9666 32.2872ZM80.55 37.499C78.2496 37.499 76.3833 35.6327 76.3833 33.3323C76.3833 31.0302 78.2496 29.1657 80.55 29.1657C82.8503 29.1657 84.7166 31.0302 84.7166 33.3323C84.7166 35.6327 82.8503 37.499 80.55 37.499ZM94.4388 64.1047L87.5187 51.4173C90.1437 50.4052 92.5065 48.8826 94.4388 46.9069V64.1047Z" fill="#26577C"/>
<line x1="75.5" y1="78.5" x2="131.5" y2="78.5" stroke="#26577C" stroke-width="3" stroke-linecap="round"/>
</svg>
