<svg width="5" height="20" viewBox="0 0 5 20" fill="none" xmlns="http://www.w3.org/2000/svg">
<path d="M0 17.5294C0 18.2157 0.240139 18.799 0.720417 19.2794C1.20069 19.7598 1.78389 20 2.47 20C3.15611 20 3.73931 19.7598 4.21958 19.2794C4.69986 18.799 4.94 18.2157 4.94 17.5294C4.94 16.8431 4.69986 16.2598 4.21958 15.7794C3.73931 15.299 3.15611 15.0588 2.47 15.0588C1.78389 15.0588 1.20069 15.299 0.720417 15.7794C0.240139 16.2598 0 16.8431 0 17.5294ZM0 10C0 10.6863 0.240139 11.2696 0.720417 11.75C1.20069 12.2304 1.78389 12.4706 2.47 12.4706C3.15611 12.4706 3.73931 12.2304 4.21958 11.75C4.69986 11.2696 4.94 10.6912 4.94 10.0147C4.94 9.33823 4.69986 8.7549 4.21958 8.26471C3.73931 7.77451 3.15611 7.52941 2.47 7.52941C1.78389 7.52941 1.20069 7.77451 0.720417 8.26471C0.240139 8.7549 0 9.34314 0 10.0294L0 10ZM0 2.47059C0 3.15686 0.240139 3.7402 0.720417 4.22059C1.20069 4.70098 1.78389 4.94118 2.47 4.94118C3.15611 4.94118 3.73931 4.70098 4.21958 4.22059C4.69986 3.7402 4.94 3.15686 4.94 2.47059C4.94 1.78431 4.69986 1.20098 4.21958 0.720589C3.73931 0.240196 3.15611 0 2.47 0C1.78389 0 1.20069 0.240196 0.720417 0.720589C0.240139 1.20098 0 1.78431 0 2.47059Z" fill="#26577C"/>
</svg>
